<svg width="24" height="26" viewBox="0 0 24 26" fill="none" xmlns="http://www.w3.org/2000/svg">
<path d="M24 5.84084C22.4903 5.91339 22.5233 5.90748 22.3526 5.92237L23.2467 3.25991C23.2467 3.25991 20.4558 4.33043 19.7483 4.52193C17.8901 2.7805 15.1282 2.70355 13.1536 3.96901C11.5366 5.00554 10.6686 6.78554 10.9581 8.86606C7.81109 8.4107 5.15954 6.85523 3.0661 4.23306L2.40399 3.40387L1.90924 4.35124C1.28394 5.54834 1.07629 6.91709 1.3244 8.20527C1.42621 8.73375 1.59924 9.23779 1.83893 9.70976L1.27093 9.48027L1.20355 10.4698C1.13525 11.4751 1.45624 12.6485 2.06232 13.6085C2.23297 13.8788 2.4527 14.1757 2.7312 14.4686L2.43768 14.4216L2.79584 15.5555C3.2666 17.0453 4.24438 18.1979 5.5133 18.8387C4.24603 19.3994 3.22229 19.7572 1.53955 20.3344L0 20.8621L1.422 21.6728C1.96417 21.9819 3.88 23.0142 5.77295 23.3239C9.98071 24.012 14.7182 23.4516 17.9075 20.4566C20.5939 17.9339 21.4753 14.3454 21.2922 10.6111C21.2646 10.0458 21.4131 9.50623 21.7104 9.09211C22.3061 8.26292 23.9963 5.84638 24 5.84084ZM20.586 8.21386C20.0922 8.90138 19.8448 9.77945 19.8891 10.686C20.0738 14.4527 19.0909 17.3739 16.9675 19.3679C14.4869 21.6974 10.4859 22.6117 5.99066 21.8765C5.17657 21.7434 4.3352 21.4454 3.63885 21.1477C5.04968 20.6416 6.13916 20.1904 7.89862 19.3221L10.3548 18.1099L7.643 17.9289C6.34405 17.8422 5.26245 17.1858 4.59759 16.1201C4.95062 16.0987 5.29101 16.0391 5.62994 15.9406L8.21631 15.1895L5.60834 14.5236C4.34106 14.1999 3.61871 13.4093 3.23584 12.8029C2.98444 12.4045 2.82019 11.9963 2.72168 11.62C2.98315 11.6931 3.28802 11.7452 3.77966 11.796L6.19354 12.045L4.28101 10.4893C2.90295 9.36858 2.35071 7.6848 2.75555 6.06613C7.05633 10.7175 12.106 10.3679 12.6143 10.4908C12.5024 9.35769 12.4995 9.35502 12.4702 9.24715C11.8193 6.84778 13.2458 5.62949 13.8893 5.21709C15.2333 4.35582 17.3666 4.22599 18.8443 5.64495C19.1634 5.9512 19.595 6.07167 19.999 5.96704C20.3615 5.87311 20.6591 5.77364 20.9504 5.66538L20.3439 7.47116L21.1181 7.47173C20.972 7.67602 20.7967 7.9206 20.586 8.21386Z" fill="#D0D9DE"/>
</svg>
