<svg width="12" height="13" viewBox="0 0 12 13" fill="none" xmlns="http://www.w3.org/2000/svg">
<path fill-rule="evenodd" clip-rule="evenodd" d="M12 1.5C12 0.947715 11.5523 0.5 11 0.5C10.4477 0.5 10 0.947715 10 1.5L10 9.01314L1.7071 0.792893C1.31658 0.402368 0.683414 0.402368 0.292891 0.792893C-0.0976343 1.18342 -0.0976344 1.81658 0.29289 2.20711L8.65907 10.5L1 10.5C0.447714 10.5 -4.56684e-07 10.9477 -4.80825e-07 11.5C-5.04966e-07 12.0523 0.447714 12.5 0.999999 12.5L11 12.5C11.5523 12.5 12 12.0523 12 11.5L12 1.5Z" fill="white"/>
</svg>
