<svg width="24" height="25" viewBox="0 0 24 25" fill="none" xmlns="http://www.w3.org/2000/svg">
<g clip-path="url(#clip0_2_15279)">
<path d="M13.5938 23.957H9.75037C9.1084 23.957 8.58618 23.4348 8.58618 22.7928V14.1239H6.34387C5.7019 14.1239 5.17969 13.6015 5.17969 12.9597V9.24506C5.17969 8.60309 5.7019 8.08087 6.34387 8.08087H8.58618V6.2207C8.58618 4.37628 9.16534 2.80707 10.2609 1.68298C11.3613 0.553772 12.8992 -0.0429688 14.7083 -0.0429688L17.6395 -0.038208C18.2803 -0.0371094 18.8016 0.485107 18.8016 1.12598V4.57495C18.8016 5.21692 18.2796 5.73914 17.6378 5.73914L15.6643 5.73987C15.0624 5.73987 14.9092 5.86054 14.8764 5.89752C14.8224 5.95886 14.7581 6.13226 14.7581 6.61108V8.08069H17.4895C17.6951 8.08069 17.8944 8.13141 18.0656 8.22699C18.4349 8.43335 18.6645 8.82355 18.6645 9.24524L18.663 12.9599C18.663 13.6015 18.1408 14.1237 17.4988 14.1237H14.7581V22.7928C14.7581 23.4348 14.2357 23.957 13.5938 23.957ZM9.99317 22.5501H13.351V13.494C13.351 13.0654 13.6998 12.7167 14.1282 12.7167H17.256L17.2573 9.48785H14.1281C13.6996 9.48785 13.351 9.13922 13.351 8.71057V6.61108C13.351 6.0614 13.4068 5.43628 13.8217 4.96643C14.3231 4.39844 15.1132 4.33289 15.6639 4.33289L17.3947 4.33215V1.36841L14.7072 1.36401C11.7999 1.36401 9.99317 3.2251 9.99317 6.2207V8.71057C9.99317 9.13904 9.64453 9.48785 9.21606 9.48785H6.58667V12.7167H9.21606C9.64453 12.7167 9.99317 13.0654 9.99317 13.494V22.5501ZM17.6367 1.36877H17.6369H17.6367Z" fill="#D0D9DE"/>
</g>
<defs>
<clipPath id="clip0_2_15279">
<rect width="23.9531" height="24" fill="white" transform="translate(0 0.00390625)"/>
</clipPath>
</defs>
</svg>
