<svg width="24" height="26" viewBox="0 0 24 26" fill="none" xmlns="http://www.w3.org/2000/svg">
<path d="M0.414182 12.4546L6.28318 15.5045C6.51018 15.6213 6.77818 15.613 6.99518 15.4806L12.2192 12.3138L9.05718 15.2355C8.89618 15.3846 8.80418 15.5973 8.80418 15.8215V22.938C8.80418 23.6888 9.72318 24.0047 10.1542 23.4083L12.6912 19.8912L18.9652 23.6168C19.4052 23.8806 19.9692 23.6158 20.0712 23.0913L23.9842 2.75847C24.1012 2.14744 23.5182 1.64903 22.9762 1.87634L0.476182 11.0261C-0.127819 11.2722 -0.166819 12.1533 0.414182 12.4546ZM22.2442 3.85331L18.8052 21.7222L12.8602 18.1916C12.5362 17.9987 12.1192 18.0842 11.8892 18.4012L10.3042 20.5982V16.1729L18.8552 8.27335C19.5322 7.64877 18.7542 6.53829 17.9812 7.01167L6.59118 13.9165L2.59918 11.8425L22.2442 3.85331Z" fill="#D0D9DE"/>
</svg>
