<?xml version="1.0" encoding="UTF-8"?>
<svg width="51px" height="50px" viewBox="0 0 51 50" version="1.1" xmlns="http://www.w3.org/2000/svg" xmlns:xlink="http://www.w3.org/1999/xlink">
    <title>assets_31</title>
    <defs>
        <ellipse id="path-1" cx="24.691358" cy="25" rx="24.691358" ry="25"></ellipse>
        <filter x="-17.4%" y="-160.0%" width="134.7%" height="420.0%" filterUnits="objectBoundingBox" id="filter-3">
            <feGaussianBlur stdDeviation="1" in="SourceGraphic"></feGaussianBlur>
        </filter>
        <filter x="-17.4%" y="-160.0%" width="134.7%" height="420.0%" filterUnits="objectBoundingBox" id="filter-4">
            <feGaussianBlur stdDeviation="1" in="SourceGraphic"></feGaussianBlur>
        </filter>
        <filter x="-34.7%" y="-160.0%" width="169.4%" height="420.0%" filterUnits="objectBoundingBox" id="filter-5">
            <feGaussianBlur stdDeviation="1" in="SourceGraphic"></feGaussianBlur>
        </filter>
        <filter x="-55.4%" y="-43.1%" width="210.8%" height="186.2%" filterUnits="objectBoundingBox" id="filter-6">
            <feGaussianBlur stdDeviation="1" in="SourceGraphic"></feGaussianBlur>
        </filter>
        <radialGradient cx="50%" cy="50%" fx="50%" fy="50%" r="73.164794%" gradientTransform="translate(0.500000,0.500000),scale(1.000000,0.987654),rotate(-90.000000),translate(-0.500000,-0.500000)" id="radialGradient-7">
            <stop stop-color="#EDF4F8" offset="0%"></stop>
            <stop stop-color="#B4BABD" offset="100%"></stop>
        </radialGradient>
        <radialGradient cx="50%" cy="50%" fx="50%" fy="50%" r="73.164794%" gradientTransform="translate(0.500000,0.500000),scale(1.000000,0.987654),rotate(-90.000000),translate(-0.500000,-0.500000)" id="radialGradient-8">
            <stop stop-color="#EDF4F8" offset="0%"></stop>
            <stop stop-color="#B4BABD" offset="100%"></stop>
        </radialGradient>
    </defs>
    <g id="页面-1" stroke="none" stroke-width="1" fill="none" fill-rule="evenodd">
        <g id="assets_31">
            <g id="Group-4-Copy-8" transform="translate(0.599113, 0.000000)">
                <mask id="mask-2" fill="white">
                    <use xlink:href="#path-1"></use>
                </mask>
                <use id="Mask-Copy" fill="#30374C" fill-rule="nonzero" xlink:href="#path-1"></use>
                <g id="分组-15" mask="url(#mask-2)">
                    <g transform="translate(9.894714, 18.125000)">
                        <path d="M4,0 L25.4490852,0 L25.4490852,0 L30.8641975,6.96051044 L30.8641975,31.5 C30.8641975,32.0522847 30.4164823,32.5 29.8641975,32.5 L1,32.5 C0.44771525,32.5 6.76353751e-17,32.0522847 0,31.5 L0,4 C-2.705415e-16,1.790861 1.790861,4.05812251e-16 4,0 Z" id="矩形" fill="#525D79"></path>
                        <rect id="矩形-copy-26" fill-opacity="0.204690573" fill="#0B1726" filter="url(#filter-3)" x="6.17283951" y="8.125" width="17.2839506" height="1.875"></rect>
                        <rect id="矩形-copy-25" fill-opacity="0.204690573" fill="#0B1726" filter="url(#filter-4)" x="6.17283951" y="13.75" width="17.2839506" height="1.875"></rect>
                        <rect id="矩形-copy-24" fill-opacity="0.204690573" fill="#0B1726" filter="url(#filter-5)" x="6.17283951" y="18.75" width="8.64197531" height="1.875"></rect>
                        <rect id="矩形" fill-opacity="0.50193093" fill="#D6DBE7" x="6.17283951" y="7.5" width="17.2839506" height="1.875" rx="0.9375"></rect>
                        <rect id="矩形-copy-11" fill-opacity="0.50193093" fill="#D6DBE7" x="6.17283951" y="13.125" width="17.2839506" height="1.875" rx="0.9375"></rect>
                        <rect id="矩形-copy-15" fill-opacity="0.50193093" fill="#D6DBE7" x="6.17283951" y="18.125" width="8.64197531" height="1.875" rx="0.9375"></rect>
                        <g id="quotes_search" stroke-width="1" fill="none" transform="translate(16.506173, 17.875000)">
                            <path d="M10.3715896,11.4070725 L8.53066145,9.57369863 L8.53066145,9.57369863 C7.63942074,10.2387476 6.54378082,10.6467945 5.34368689,10.6467945 C2.39192172,10.6460431 0,8.26313894 0,5.32339726 C0,2.38290411 2.39192172,0 5.34443836,0 C8.29545205,0 10.6873738,2.38290411 10.6873738,5.32339726 C10.6873738,6.51823092 10.2778239,7.6101135 9.61052055,8.49759687 L11.4508673,10.3315515 C11.7478171,10.6274699 11.7486532,11.1080845 11.4527348,11.4050343 C11.4521126,11.4056586 11.4514893,11.4062819 11.450865,11.4069041 C11.1525465,11.7041838 10.6700008,11.7042591 10.3715896,11.4070725 Z M1.52773386,5.32414873 C1.52773386,7.42374951 3.23581996,9.12657534 5.34443836,9.12657534 C7.45155382,9.12657534 9.16114286,7.42374951 9.16114286,5.32414873 C9.16114286,3.22304501 7.45155382,1.52172211 5.34443836,1.52172211 C3.23581996,1.52172211 1.52773386,3.22379648 1.52773386,5.32414873 Z" id="Shape" fill-opacity="0.500638522" fill="#D6DBE7" fill-rule="nonzero"></path>
                            <circle id="椭圆形" fill-opacity="0.800062486" fill="#FFFFFF" cx="3.5" cy="5.5" r="1"></circle>
                            <circle id="椭圆形" fill-opacity="0.800062486" fill="#FFFFFF" cx="5.5" cy="5.5" r="1"></circle>
                            <circle id="椭圆形" fill-opacity="0.800062486" fill="#FFFFFF" cx="7.5" cy="5.5" r="1"></circle>
                        </g>
                        <path d="M24.8318012,0.625 L30.2469136,7.58551044 L25.8318012,7.58551044 C25.2795165,7.58551044 24.8318012,7.13779519 24.8318012,6.58551044 L24.8318012,0.625 L24.8318012,0.625 Z" id="矩形-copy-27" fill-opacity="0.204690573" fill="#0B1726" filter="url(#filter-6)"></path>
                        <path d="M25.4490852,-4.60742555e-14 L30.8641975,6.96051044 L26.4490852,6.96051044 C25.8968004,6.96051044 25.4490852,6.51279519 25.4490852,5.96051044 L25.4490852,-4.60742555e-14 L25.4490852,-4.60742555e-14 Z" id="矩形-copy-10" fill-opacity="0.50193093" fill="#D6DBE7"></path>
                    </g>
                </g>
            </g>
            <path d="M42.5316489,3.125 C42.8919334,3.72704358 43.1344802,4.43235924 43.2592892,5.24094698 L43.2720362,5.34483755 C43.303383,5.35054857 43.3361656,5.35644584 43.3704716,5.36253031 C44.1604828,5.50264587 44.8570908,5.7779006 45.4602957,6.18829452 C44.8656848,6.5530826 44.1690767,6.7986612 43.3704716,6.92503031 L43.2650361,6.94031721 C43.2631405,6.95164241 43.2612248,6.96314704 43.2592892,6.97483487 C43.1317794,7.74477109 42.8745778,8.47100928 42.4876843,9.15354944 C42.1029729,8.48418559 41.8457712,7.7579474 41.7160793,6.97483487 L41.7123888,6.93434493 C41.694715,6.93129259 41.6765872,6.92818774 41.6579897,6.92503031 C40.8975589,6.79592669 40.1802866,6.53551002 39.5061728,6.14378031 C40.1672729,5.75426002 40.8845452,5.49384335 41.6579897,5.36253031 L41.6951678,5.35990145 C41.7018712,5.3223844 41.7088411,5.28278458 41.7160793,5.24094698 C41.8544651,4.44106063 42.1263216,3.73574497 42.5316489,3.125 Z" id="合并形状" fill="url(#radialGradient-7)"></path>
            <path d="M3.41133948,21.25 C3.53247276,21.5620794 3.61402076,21.9276917 3.65598349,22.3468367 C3.66342688,22.4211851 3.67000911,22.4821464 3.67572341,22.5328371 C3.72137839,22.5355006 3.78142232,22.5428851 3.85497609,22.5513464 C4.26449169,22.5984554 4.6255902,22.6910004 4.9382716,22.8289812 C4.63004502,22.9516287 4.26894652,23.034196 3.85497609,23.0766833 C3.780342,23.0843433 3.71936665,23.0911025 3.66881822,23.0969538 C3.66799539,23.1368554 3.66230693,23.186758 3.65598349,23.2456267 C3.61311273,23.644736 3.52663752,24.0211938 3.39655788,24.375 C3.2672119,24.028024 3.1807367,23.6515662 3.13713226,23.2456267 C3.13076428,23.1863434 3.12497473,23.1359796 3.11977575,23.0927865 C3.07926059,23.0893779 3.02811909,23.0833825 2.96728231,23.0766833 C2.5731002,23.0332766 2.20129005,22.9457205 1.85185185,22.8140148 C2.19454421,22.6830521 2.56635436,22.5954959 2.96728231,22.5513464 C3.02541687,22.5449447 3.07486703,22.5391204 3.11732343,22.5338855 C3.1209405,22.4866118 3.12846429,22.4240823 3.13713226,22.3468367 C3.1836597,21.9322022 3.27506211,21.5665899 3.41133948,21.25 Z" id="合并形状-copy" fill="url(#radialGradient-8)"></path>
        </g>
    </g>
</svg>