<svg t="1658825315039" class="icon" viewBox="0 0 1024 1024" version="1.1" xmlns="http://www.w3.org/2000/svg" p-id="21110" xmlns:xlink="http://www.w3.org/1999/xlink" width="200" height="200">
    <defs>
        <style type="text/css"></style>
    </defs>
    <path d="M652.026049 93.632629L696.312167 13.047253A8.806026 8.806026 0 0 0 680.95282 4.65081l-44.746899 81.404541a306.521373 306.521373 0 0 0-124.308317-26.008495c-44.490909 0-86.524323 9.266806-124.103525 25.906099L342.944785 4.65081a8.754828 8.754828 0 0 0-11.877895-3.53265 8.652432 8.652432 0 0 0-3.53265 11.877896l44.337315 80.482979c-87.036301 44.746898-145.913799 129.88888-145.8626 227.676724l571.674903-0.051198c0-97.787844-58.672706-182.776232-145.657809-227.52313z m-270.222116 124.410712a23.909384 23.909384 0 1 1 0.051198-47.818768 23.909384 23.909384 0 0 1 0 47.869966zM795.738341 343.068428l0.102396 410.196966c0 24.626153-13.41383 45.924448-33.17619 57.699948a67.06915 67.06915 0 0 1-34.558532 9.727587l-46.282832 0.051197v139.974851a63.331708 63.331708 0 0 1-76.233561 61.949368 63.382906 63.382906 0 0 1-50.685845-61.89817V820.744126H469.147421v140.026049A63.331708 63.331708 0 0 1 405.764515 1023.999488a63.434104 63.434104 0 0 1-63.382906-63.229313V820.744126h-46.12924c-26.674066 0-49.508296-15.359347-60.515828-37.681598a66.454776 66.454776 0 0 1-7.218893-29.745936l-0.102396-410.094571L795.738341 343.068428zM140.303797 331.292928c35.019312 0 63.485302 28.312397 63.485302 63.178115v264.692751a63.382906 63.382906 0 0 1-98.402218 52.733758 63.024521 63.024521 0 0 1-28.517188-52.733758L76.818495 394.419845c0-34.81452 28.414792-63.178115 63.485302-63.178115z m743.392406-0.051198c35.019312 0 63.485302 28.261199 63.485302 63.178115v264.641553c0 34.968114-28.414792 63.229313-63.434104 63.229313-35.07051 0-63.485302-28.261199-63.485302-63.229313V394.368647c0-34.916916 28.363595-63.229313 63.382906-63.178115zM642.042473 170.275771a23.909384 23.909384 0 0 1 0 47.76757 23.909384 23.909384 0 1 1 0-47.76757z" fill="#555555" p-id="21111"></path>
</svg>