<!-- Generated by IcoMoon.io -->
<svg version="1.1" xmlns="http://www.w3.org/2000/svg" width="1024" height="1024" viewBox="0 0 1024 1024">
<title></title>
<g id="icomoon-ignore">
</g>
<path fill="#4056d8" d="M703.992 0c-54.591 3.776-118.398 38.72-155.581 84.224-33.922 41.28-61.826 102.591-50.944 162.175 59.648 1.856 121.277-33.92 156.991-80.191 33.406-43.072 58.687-103.999 49.534-166.207z"></path>
<path fill="#4056d8" d="M919.796 343.564c-52.417-65.728-126.078-103.871-195.647-103.871-91.841 0-130.686 43.968-194.493 43.968-65.792 0-115.775-43.84-195.2-43.84-78.015 0-161.087 47.68-213.759 129.215-74.047 114.816-61.375 330.687 58.624 514.558 42.944 65.792 100.287 139.772 175.295 140.414 66.753 0.638 85.567-42.815 175.998-43.264 90.431-0.512 107.583 43.839 174.21 43.134 75.071-0.575 135.55-82.558 178.495-148.35 30.783-47.167 42.24-70.912 66.111-124.16-173.631-66.111-201.472-313.021-29.633-407.804z"></path>
</svg>
