<svg width="33" height="33" viewBox="0 0 33 33" fill="none" xmlns="http://www.w3.org/2000/svg">
<path d="M8.94811 3.62736C7.91987 3.05903 6.71259 3.07217 5.69092 3.63557L17.6652 14.6818L21.6878 10.6592L8.94811 3.62736Z" fill="white"/>
<path d="M4.49068 4.76172C4.1983 5.2397 4.03076 5.78668 4.03076 6.3665V26.317C4.03076 26.8788 4.18352 27.4143 4.45947 27.8824L16.5011 15.8408L4.49068 4.76172Z" fill="white"/>
<path d="M27.0189 13.6016L23.1818 11.4844L18.8701 15.7945L24.1542 20.6679L27.0205 19.0861C28.052 18.5145 28.6696 17.4896 28.6696 16.3431C28.668 15.1966 28.052 14.1716 27.0189 13.6016Z" fill="white"/>
<path d="M17.7087 16.957L5.63428 29.0315C6.15825 29.3304 6.73315 29.4881 7.31133 29.4881C7.8698 29.4881 8.43156 29.3469 8.94568 29.0627L22.6397 21.5053L17.7087 16.957Z" fill="white"/>
</svg>
