<svg width="16" height="16" viewBox="0 0 16 16" fill="none" xmlns="http://www.w3.org/2000/svg">
<path d="M8 1C7.30777 1 6.63108 1.20527 6.05551 1.58986C5.47993 1.97444 5.03133 2.52107 4.76642 3.16061C4.50152 3.80015 4.4322 4.50388 4.56725 5.18282C4.7023 5.86175 5.03564 6.48539 5.52513 6.97487C6.01461 7.46436 6.63825 7.7977 7.31719 7.93275C7.99612 8.0678 8.69985 7.99848 9.33939 7.73358C9.97893 7.46867 10.5256 7.02007 10.9101 6.4445C11.2947 5.86892 11.5 5.19223 11.5 4.5C11.5 3.57174 11.1313 2.6815 10.4749 2.02513C9.8185 1.36875 8.92826 1 8 1V1ZM8 7C7.50555 7 7.0222 6.85338 6.61108 6.57867C6.19995 6.30397 5.87952 5.91352 5.6903 5.45671C5.50108 4.99989 5.45157 4.49723 5.54804 4.01227C5.6445 3.52732 5.8826 3.08186 6.23223 2.73223C6.58187 2.3826 7.02732 2.1445 7.51228 2.04804C7.99723 1.95157 8.4999 2.00108 8.95671 2.1903C9.41353 2.37952 9.80397 2.69995 10.0787 3.11107C10.3534 3.5222 10.5 4.00555 10.5 4.5C10.5 4.8283 10.4353 5.15339 10.3097 5.45671C10.1841 5.76002 9.99991 6.03562 9.76777 6.26777C9.53562 6.49991 9.26002 6.68406 8.95671 6.8097C8.6534 6.93534 8.32831 7 8 7V7Z" fill="#D0D9DE"/>
<path d="M10.585 9H5.415C4.24448 9.00132 3.12227 9.4669 2.29459 10.2946C1.4669 11.1223 1.00132 12.2445 1 13.415C1 13.8354 1.16699 14.2385 1.46424 14.5358C1.76148 14.833 2.16463 15 2.585 15H13.415C13.8354 15 14.2385 14.833 14.5358 14.5358C14.833 14.2385 15 13.8354 15 13.415C14.9987 12.2445 14.5331 11.1223 13.7054 10.2946C12.8777 9.4669 11.7555 9.00132 10.585 9V9ZM13.415 14H2.585C2.42985 14 2.28105 13.9384 2.17134 13.8287C2.06163 13.7189 2 13.5702 2 13.415C2 12.5093 2.35979 11.6407 3.00023 11.0002C3.64067 10.3598 4.50929 10 5.415 10H10.585C11.4907 10 12.3593 10.3598 12.9998 11.0002C13.6402 11.6407 14 12.5093 14 13.415C14 13.5702 13.9384 13.7189 13.8287 13.8287C13.7189 13.9384 13.5702 14 13.415 14V14Z" fill="#D0D9DE"/>
</svg>
