<svg xmlns="http://www.w3.org/2000/svg" xmlns:xlink="http://www.w3.org/1999/xlink" width="0" height="0" style="display:none;"><symbol viewBox="0 0 50 50" id="icon-alert">
<path d="M25.0008 0C11.1884 0 0 11.1884 0 25.0008C0 38.8065 11.1884 50 25.0008 50C38.8133 50 49.9983 38.8065 49.9983 25.0008C49.9983 11.1884 38.8133 0 25.0008 0ZM25.0008 45.9218C13.4451 45.9218 4.07821 36.5566 4.07821 24.9992C4.07821 13.44 13.4451 4.07144 25.0008 4.07144C36.5566 4.07144 45.9252 13.4417 45.9252 25.0008C45.9252 36.5566 36.5566 45.9218 25.0008 45.9218Z" fill="white"></path>
<path d="M27.6608 30.4104L28.6765 9.48438H21.375L22.3941 30.4104H27.6608Z" fill="white"></path>
<path d="M25.0233 32.7109C22.577 32.7109 20.8672 34.4225 20.8672 36.9178C20.8672 39.3184 22.5296 41.1196 24.9268 41.1196H25.0233C27.5169 41.1196 29.1337 39.3184 29.1337 36.9178C29.0879 34.4225 27.4712 32.7109 25.0233 32.7109Z" fill="white"></path>
</symbol><symbol viewBox="0 0 1024 1024" id="icon-android">
    <defs>
        <style type="text/css"></style>
    </defs>
    <path d="M652.026049 93.632629L696.312167 13.047253A8.806026 8.806026 0 0 0 680.95282 4.65081l-44.746899 81.404541a306.521373 306.521373 0 0 0-124.308317-26.008495c-44.490909 0-86.524323 9.266806-124.103525 25.906099L342.944785 4.65081a8.754828 8.754828 0 0 0-11.877895-3.53265 8.652432 8.652432 0 0 0-3.53265 11.877896l44.337315 80.482979c-87.036301 44.746898-145.913799 129.88888-145.8626 227.676724l571.674903-0.051198c0-97.787844-58.672706-182.776232-145.657809-227.52313z m-270.222116 124.410712a23.909384 23.909384 0 1 1 0.051198-47.818768 23.909384 23.909384 0 0 1 0 47.869966zM795.738341 343.068428l0.102396 410.196966c0 24.626153-13.41383 45.924448-33.17619 57.699948a67.06915 67.06915 0 0 1-34.558532 9.727587l-46.282832 0.051197v139.974851a63.331708 63.331708 0 0 1-76.233561 61.949368 63.382906 63.382906 0 0 1-50.685845-61.89817V820.744126H469.147421v140.026049A63.331708 63.331708 0 0 1 405.764515 1023.999488a63.434104 63.434104 0 0 1-63.382906-63.229313V820.744126h-46.12924c-26.674066 0-49.508296-15.359347-60.515828-37.681598a66.454776 66.454776 0 0 1-7.218893-29.745936l-0.102396-410.094571L795.738341 343.068428zM140.303797 331.292928c35.019312 0 63.485302 28.312397 63.485302 63.178115v264.692751a63.382906 63.382906 0 0 1-98.402218 52.733758 63.024521 63.024521 0 0 1-28.517188-52.733758L76.818495 394.419845c0-34.81452 28.414792-63.178115 63.485302-63.178115z m743.392406-0.051198c35.019312 0 63.485302 28.261199 63.485302 63.178115v264.641553c0 34.968114-28.414792 63.229313-63.434104 63.229313-35.07051 0-63.485302-28.261199-63.485302-63.229313V394.368647c0-34.916916 28.363595-63.229313 63.382906-63.178115zM642.042473 170.275771a23.909384 23.909384 0 0 1 0 47.76757 23.909384 23.909384 0 1 1 0-47.76757z" fill="#555555" p-id="21111"></path>
</symbol><symbol id="icon-apple"></symbol><symbol viewBox="0 0 16 16" id="icon-control">
<path d="M15.5312 1.875H13.1091C12.8913 0.8065 11.9444 0 10.8125 0C9.68062 0 8.73369 0.8065 8.51591 1.875H0.46875C0.209875 1.875 0 2.08488 0 2.34375C0 2.60262 0.209875 2.8125 0.46875 2.8125H8.51591C8.73366 3.881 9.68062 4.6875 10.8125 4.6875C11.9444 4.6875 12.8913 3.881 13.1091 2.8125H15.5312C15.7901 2.8125 16 2.60262 16 2.34375C16 2.08488 15.7901 1.875 15.5312 1.875ZM10.8125 3.75C10.0372 3.75 9.40647 3.11937 9.40625 2.34416C9.40625 2.34403 9.40628 2.34391 9.40628 2.34375C9.40628 2.34359 9.40625 2.34347 9.40625 2.34334C9.40647 1.56813 10.0372 0.9375 10.8125 0.9375C11.5879 0.9375 12.2188 1.56834 12.2188 2.34375C12.2188 3.11916 11.5879 3.75 10.8125 3.75Z" fill="#D0D9DE"></path>
<path d="M15.5312 7.53125H7.48409C7.26634 6.46275 6.31938 5.65625 5.1875 5.65625C4.05562 5.65625 3.10869 6.46275 2.89091 7.53125H0.46875C0.209875 7.53125 0 7.74113 0 8C0 8.25887 0.209875 8.46875 0.46875 8.46875H2.89091C3.10866 9.53725 4.05562 10.3438 5.1875 10.3438C6.31938 10.3438 7.26631 9.53725 7.48409 8.46875H15.5312C15.7901 8.46875 16 8.25887 16 8C16 7.74113 15.7901 7.53125 15.5312 7.53125ZM5.1875 9.40625C4.41222 9.40625 3.78147 8.77562 3.78125 8.00041C3.78125 8.00028 3.78128 8.00016 3.78128 8C3.78128 7.99984 3.78125 7.99972 3.78125 7.99959C3.78147 7.22438 4.41222 6.59375 5.1875 6.59375C5.96291 6.59375 6.59375 7.22459 6.59375 8C6.59375 8.77541 5.96291 9.40625 5.1875 9.40625Z" fill="#D0D9DE"></path>
<path d="M15.5312 13.1875H13.1091C12.8913 12.119 11.9444 11.3125 10.8125 11.3125C9.68062 11.3125 8.73369 12.119 8.51591 13.1875H0.46875C0.209875 13.1875 0 13.3974 0 13.6562C0 13.9151 0.209875 14.125 0.46875 14.125H8.51591C8.73366 15.1935 9.68062 16 10.8125 16C11.9444 16 12.8913 15.1935 13.1091 14.125H15.5312C15.7901 14.125 16 13.9151 16 13.6562C16 13.3974 15.7901 13.1875 15.5312 13.1875ZM10.8125 15.0625C10.0372 15.0625 9.40647 14.4319 9.40625 13.6567C9.40625 13.6565 9.40628 13.6564 9.40628 13.6562C9.40628 13.6561 9.40625 13.656 9.40625 13.6558C9.40647 12.8806 10.0372 12.25 10.8125 12.25C11.5879 12.25 12.2188 12.8808 12.2188 13.6562C12.2188 14.4317 11.5879 15.0625 10.8125 15.0625Z" fill="#D0D9DE"></path>
</symbol><symbol viewBox="0 0 16 16" id="icon-crown">
<g clip-path="url(#clip0_284_29442)">
<path fill-rule="evenodd" clip-rule="evenodd" d="M9.19476 1.62104C8.65348 0.792989 7.42493 0.792981 6.88365 1.62104L4.15077 5.80161L2.06188 4.61811C1.01537 4.02518 -0.242904 4.95439 0.040574 6.11079L1.45972 11.8999C1.52361 12.1606 1.7603 12.3442 2.03238 12.3442H14.046C14.3182 12.3442 14.5548 12.1606 14.6187 11.8999L16.0378 6.11079C16.3214 4.95438 15.0631 4.02518 14.0165 4.61811L11.9276 5.80161L9.19476 1.62104ZM8.20425 2.24996C8.127 2.13166 7.95142 2.13166 7.87416 2.24995L4.83795 6.89451C4.668 7.15449 4.32111 7.23754 4.04908 7.08343L1.47465 5.62484C1.32514 5.54014 1.14539 5.67288 1.18589 5.83808L2.49613 11.1829H13.5823L14.8926 5.83808C14.933 5.67288 14.7533 5.54014 14.6038 5.62484L12.0293 7.08343C11.7573 7.23754 11.4104 7.15449 11.2405 6.89451L8.20425 2.24996Z" fill="#D0D9DE"></path>
<path d="M2.54226 13.5078C2.21689 13.5078 1.95312 13.7678 1.95312 14.0885C1.95312 14.4091 2.21689 14.6691 2.54226 14.6691H13.5394C13.8647 14.6691 14.1285 14.4091 14.1285 14.0885C14.1285 13.7678 13.8647 13.5078 13.5394 13.5078H2.54226Z" fill="#D0D9DE"></path>
</g>
<defs>
<clippath id="clip0_284_29442">
<rect width="16" height="16" fill="white"></rect>
</clippath>
</defs>
</symbol><symbol viewBox="0 0 1024 1024" id="icon-gear">
    <defs>
        <style type="text/css"></style>
    </defs>
    <path d="M595.2 1024H433.476923c-14.276923 0-26.830769-10.614154-29.538461-24.674462l-19.446154-100.430769c-18.461538-6.163692-35.446154-12.829538-51.446154-20.726154l-85.661539 58.24a30.178462 30.178462 0 0 1-38.153846-3.702153L95.015385 817.969231a30.296615 30.296615 0 0 1-3.692308-38.252308l57.846154-85.366154A377.078154 377.078154 0 0 1 128 642.284308l-100.676923-19.495385c-14.030769-2.717538-25.107692-15.054769-25.107692-29.607385V431.064615c0-14.306462 11.076923-26.889846 25.353846-29.607384l99.692307-19.249231a420.765538 420.765538 0 0 1 20.923077-52.302769l-57.107692-84.391385c-8.123077-11.844923-6.4-27.884308 3.692308-38.242461L209.230769 92.780308a30.464 30.464 0 0 1 38.153846-3.702154l83.938462 57.245538c16.738462-8.388923 34.461538-15.556923 53.169231-21.720615L403.692308 24.674462C406.4 10.614154 418.707692 0 433.230769 0h161.723077c14.276923 0 26.830769 10.614154 29.538462 24.674462l19.2 99.682461a401.211077 401.211077 0 0 1 52.923077 21.228308l84.430769-57.245539a30.178462 30.178462 0 0 1 38.153846 3.692308L933.415385 206.769231a30.296615 30.296615 0 0 1 3.692307 38.252307l-57.6 84.873847a417.693538 417.693538 0 0 1 20.923077 51.574153l99.692308 19.495385C1014.153846 403.682462 1024 416.019692 1024 430.572308v161.624615c0 14.306462-9.846154 26.889846-24.123077 29.607385l-99.446154 19.495384a428.465231 428.465231 0 0 1-20.676923 52.30277l58.092308 85.868307a30.050462 30.050462 0 0 1-3.692308 38.252308L819.692308 932.214154c-10.092308 10.358154-26.092308 11.835077-38.153846 3.692308l-85.661539-58.230154a401.831385 401.831385 0 0 1-51.938461 21.218461l-19.446154 100.676923C621.784615 1013.385846 609.476923 1024 595.2 1024z m-137.107692-61.686154h112.246154l17.96923-93.272615a29.636923 29.636923 0 0 1 21.169231-22.941539c26.584615-7.650462 51.446154-17.772308 73.6-30.109538 9.846154-5.425231 22.153846-4.932923 31.507692 1.476923l80 54.537846 79.261539-79.458461-54.153846-80.187077a29.833846 29.833846 0 0 1-1.23077-31.586462c11.815385-21.464615 21.661538-45.646769 29.538462-74.023385 2.953846-10.860308 11.076923-19.249231 22.153846-21.218461l92.307692-18.018462V455.010462l-92.307692-18.25477c-11.076923-2.225231-19.446154-10.368-22.646154-21.228307-7.630769-26.889846-17.476923-51.564308-29.538461-73.531077a30.395077 30.395077 0 0 1 1.476923-31.576616l53.661538-79.212307-79.261538-79.448616-78.769231 53.543385c-9.353846 6.419692-21.661538 6.912-31.507692 1.230769-21.169231-11.835077-45.538462-21.710769-74.338462-29.853538-10.830769-2.953846-19.2-11.598769-21.169231-22.695385l-17.723076-92.288H457.846154l-17.969231 92.534154a29.636923 29.636923 0 0 1-21.169231 22.941538c-27.323077 7.650462-52.430769 18.018462-74.830769 30.601846-9.846154 5.425231-22.153846 4.923077-31.507692-1.476923l-78.276923-53.307077-79.261539 79.458462 53.415385 78.956308c6.4 9.373538 6.892308 21.464615 1.476923 31.340307-11.815385 21.218462-21.415385 45.390769-29.292308 73.777231-2.953846 11.096615-12.307692 19.239385-23.384615 21.464616l-93.046154 18.018461v112.512l93.292308 18.018462c11.076923 2.215385 20.184615 10.358154 23.138461 21.208615 7.630769 26.899692 17.723077 51.574154 30.276923 73.777231 5.415385 9.875692 4.923077 22.212923-1.230769 31.586461l-54.153846 79.95077 79.261538 79.448615L314.584615 818.215385c9.353846-6.419692 21.415385-6.912 31.507693-1.476923 21.169231 11.835077 45.046154 21.464615 73.107692 29.36123 10.830769 3.2 19.2 11.588923 21.169231 22.695385l17.723077 93.518769zM994.461538 602.062769h0.492308-0.492308z m-480.246153 146.313846c-62.523077 0-121.846154-24.418462-166.892308-69.326769-53.661538-53.789538-77.784615-128.315077-66.215385-204.553846 15.261538-100.430769 96-181.110154 196.184616-196.657231 75.569231-11.598769 150.153846 12.583385 203.815384 66.372923 53.661538 53.789538 78.030769 128.305231 66.461539 204.553846-15.261538 100.430769-96 181.110154-195.938462 196.657231-12.553846 1.969231-25.107692 2.953846-37.415384 2.953846z m32.738461-25.403077h0.492308-0.492308z m-32.492308-387.643076c-9.353846 0-18.461538 0.738462-28.061538 2.215384-73.353846 11.352615-134.646154 72.792615-145.969231 146.077539-8.615385 56.999385 9.353846 112.768 49.476923 152.979692 40.123077 40.221538 95.753846 58.24 152.615385 49.604923 73.353846-11.352615 134.646154-72.792615 145.723077-146.323692 8.615385-57.009231-9.353846-112.768-49.476923-152.989539-33.476923-33.555692-77.538462-51.564308-124.307693-51.564307z" fill="#2E323F" p-id="15852"></path>
</symbol><symbol viewBox="0 0 33 33" id="icon-google-play">
<path d="M8.94811 3.62736C7.91987 3.05903 6.71259 3.07217 5.69092 3.63557L17.6652 14.6818L21.6878 10.6592L8.94811 3.62736Z" fill="white"></path>
<path d="M4.49068 4.76172C4.1983 5.2397 4.03076 5.78668 4.03076 6.3665V26.317C4.03076 26.8788 4.18352 27.4143 4.45947 27.8824L16.5011 15.8408L4.49068 4.76172Z" fill="white"></path>
<path d="M27.0189 13.6016L23.1818 11.4844L18.8701 15.7945L24.1542 20.6679L27.0205 19.0861C28.052 18.5145 28.6696 17.4896 28.6696 16.3431C28.668 15.1966 28.052 14.1716 27.0189 13.6016Z" fill="white"></path>
<path d="M17.7087 16.957L5.63428 29.0315C6.15825 29.3304 6.73315 29.4881 7.31133 29.4881C7.8698 29.4881 8.43156 29.3469 8.94568 29.0627L22.6397 21.5053L17.7087 16.957Z" fill="white"></path>
</symbol><symbol viewBox="0 0 1024 1024" id="icon-invite">
    <defs>
        <style type="text/css"></style>
    </defs>
    <path d="M678.3 642.4c24.2-13 51.9-20.4 81.4-20.4h0.1c3 0 4.4-3.6 2.2-5.6-30.8-27.6-65.6-49.7-103.7-65.8-0.4-0.2-0.8-0.3-1.2-0.5C719.2 505 759.6 431.7 759.6 349c0-137-110.8-248-247.5-248S264.7 212 264.7 349c0 82.7 40.4 156 102.6 201.1-0.4 0.2-0.8 0.3-1.2 0.5-44.7 18.9-84.8 46-119.3 80.6-34.5 34.5-61.5 74.7-80.4 119.5C147.9 794.5 138 841 137 888.8c-0.1 4.5 3.5 8.2 8 8.2h59.9c4.3 0 7.9-3.5 8-7.8 2-77.2 32.9-149.5 87.6-204.3C357 628.2 432.2 597 512.2 597c56.7 0 111.1 15.7 158 45.1 2.5 1.5 5.5 1.7 8.1 0.3zM512.2 521c-45.8 0-88.9-17.9-121.4-50.4-32.4-32.5-50.3-75.7-50.3-121.6 0-45.9 17.9-89.1 50.3-121.6S466.3 177 512.2 177s88.9 17.9 121.4 50.4c32.4 32.5 50.3 75.7 50.3 121.6 0 45.9-17.9 89.1-50.3 121.6C601.1 503.1 558 521 512.2 521zM880 759h-84v-84c0-4.4-3.6-8-8-8h-56c-4.4 0-8 3.6-8 8v84h-84c-4.4 0-8 3.6-8 8v56c0 4.4 3.6 8 8 8h84v84c0 4.4 3.6 8 8 8h56c4.4 0 8-3.6 8-8v-84h84c4.4 0 8-3.6 8-8v-56c0-4.4-3.6-8-8-8z" p-id="14921"></path>
</symbol><symbol viewBox="0 0 16 16" id="icon-log-out">
<path fill-rule="evenodd" clip-rule="evenodd" d="M12.6641 2.66927C12.8409 2.66927 13.0104 2.73951 13.1355 2.86453C13.2605 2.98956 13.3307 3.15913 13.3307 3.33594V12.6693C13.3307 12.8461 13.2605 13.0157 13.1355 13.1407C13.0104 13.2657 12.8409 13.3359 12.6641 13.3359H9.9974C9.62921 13.3359 9.33073 13.6344 9.33073 14.0026C9.33073 14.3708 9.62921 14.6693 9.9974 14.6693H12.6641C13.1945 14.6693 13.7032 14.4586 14.0783 14.0835C14.4533 13.7084 14.6641 13.1997 14.6641 12.6693V3.33594C14.6641 2.8055 14.4533 2.2968 14.0783 1.92172C13.7032 1.54665 13.1945 1.33594 12.6641 1.33594H9.9974C9.62921 1.33594 9.33073 1.63441 9.33073 2.0026C9.33073 2.37079 9.62921 2.66927 9.9974 2.66927H12.6641Z" fill="#D0D9DE"></path>
<path fill-rule="evenodd" clip-rule="evenodd" d="M5.80474 4.19526C5.54439 3.93491 5.12228 3.93491 4.86193 4.19526L1.5286 7.5286C1.26825 7.78894 1.26825 8.21106 1.5286 8.4714L4.86193 11.8047C5.12228 12.0651 5.54439 12.0651 5.80474 11.8047C6.06509 11.5444 6.06509 11.1223 5.80474 10.8619L2.94281 8L5.80474 5.13807C6.06509 4.87772 6.06509 4.45561 5.80474 4.19526Z" fill="#D0D9DE"></path>
<path fill-rule="evenodd" clip-rule="evenodd" d="M10.6641 8.0026C10.6641 7.63441 10.3656 7.33594 9.9974 7.33594H1.9974C1.62921 7.33594 1.33073 7.63441 1.33073 8.0026C1.33073 8.37079 1.62921 8.66927 1.9974 8.66927H9.9974C10.3656 8.66927 10.6641 8.37079 10.6641 8.0026Z" fill="#D0D9DE"></path>
</symbol><symbol viewBox="0 0 16 16" id="icon-user">
<path d="M8 1C7.30777 1 6.63108 1.20527 6.05551 1.58986C5.47993 1.97444 5.03133 2.52107 4.76642 3.16061C4.50152 3.80015 4.4322 4.50388 4.56725 5.18282C4.7023 5.86175 5.03564 6.48539 5.52513 6.97487C6.01461 7.46436 6.63825 7.7977 7.31719 7.93275C7.99612 8.0678 8.69985 7.99848 9.33939 7.73358C9.97893 7.46867 10.5256 7.02007 10.9101 6.4445C11.2947 5.86892 11.5 5.19223 11.5 4.5C11.5 3.57174 11.1313 2.6815 10.4749 2.02513C9.8185 1.36875 8.92826 1 8 1V1ZM8 7C7.50555 7 7.0222 6.85338 6.61108 6.57867C6.19995 6.30397 5.87952 5.91352 5.6903 5.45671C5.50108 4.99989 5.45157 4.49723 5.54804 4.01227C5.6445 3.52732 5.8826 3.08186 6.23223 2.73223C6.58187 2.3826 7.02732 2.1445 7.51228 2.04804C7.99723 1.95157 8.4999 2.00108 8.95671 2.1903C9.41353 2.37952 9.80397 2.69995 10.0787 3.11107C10.3534 3.5222 10.5 4.00555 10.5 4.5C10.5 4.8283 10.4353 5.15339 10.3097 5.45671C10.1841 5.76002 9.99991 6.03562 9.76777 6.26777C9.53562 6.49991 9.26002 6.68406 8.95671 6.8097C8.6534 6.93534 8.32831 7 8 7V7Z" fill="#D0D9DE"></path>
<path d="M10.585 9H5.415C4.24448 9.00132 3.12227 9.4669 2.29459 10.2946C1.4669 11.1223 1.00132 12.2445 1 13.415C1 13.8354 1.16699 14.2385 1.46424 14.5358C1.76148 14.833 2.16463 15 2.585 15H13.415C13.8354 15 14.2385 14.833 14.5358 14.5358C14.833 14.2385 15 13.8354 15 13.415C14.9987 12.2445 14.5331 11.1223 13.7054 10.2946C12.8777 9.4669 11.7555 9.00132 10.585 9V9ZM13.415 14H2.585C2.42985 14 2.28105 13.9384 2.17134 13.8287C2.06163 13.7189 2 13.5702 2 13.415C2 12.5093 2.35979 11.6407 3.00023 11.0002C3.64067 10.3598 4.50929 10 5.415 10H10.585C11.4907 10 12.3593 10.3598 12.9998 11.0002C13.6402 11.6407 14 12.5093 14 13.415C14 13.5702 13.9384 13.7189 13.8287 13.8287C13.7189 13.9384 13.5702 14 13.415 14V14Z" fill="#D0D9DE"></path>
</symbol></svg>