<svg width="21" height="21" viewBox="0 0 21 21" fill="none" xmlns="http://www.w3.org/2000/svg">
<path d="M15.6777 6.40115L13.3296 8.7616L9.80759 5.22092L6.28553 8.7616L3.9375 6.40115L9.80759 0.5L15.6777 6.40115Z" fill="white"/>
<path d="M15.6777 14.6026L13.3296 12.2422L9.80759 15.7829L6.28553 12.2422L3.9375 14.6026L9.80759 20.5038L15.6777 14.6026Z" fill="white"/>
<path d="M7.64062 10.5L9.99384 8.14679L12.347 10.5L9.99384 12.8532L7.64062 10.5Z" fill="white"/>
<path d="M0 10.5L2.35321 8.14679L4.70642 10.5L2.35321 12.8532L0 10.5Z" fill="white"/>
<path d="M15.2969 10.5L17.6501 8.14679L20.0033 10.5L17.6501 12.8532L15.2969 10.5Z" fill="white"/>
</svg>
