<svg width="15" height="20" viewBox="0 0 15 20" fill="none" xmlns="http://www.w3.org/2000/svg">
<path d="M7.2975 19.5C6.9852 19.5 6.67289 19.3045 6.46469 19.109L0.218651 10.312C0.0104497 10.0188 0.0104497 9.53008 0.218651 9.23684L6.46469 0.43985C6.88109 -0.146617 7.818 -0.146617 8.2344 0.43985L14.4804 9.23684C14.6886 9.53008 14.6886 10.0188 14.4804 10.312L8.2344 19.109C7.9221 19.3045 7.6098 19.5 7.2975 19.5ZM2.30066 9.72556L7.2975 16.7632L12.2943 9.72556L7.2975 2.68797L2.30066 9.72556Z" fill="white"/>
<path d="M7.28705 12.638C7.18295 12.638 7.07885 12.638 6.97475 12.5402L0.728705 10.5854C0.312302 10.4876 0 10.1944 0 9.8034C0 9.41242 0.208201 9.02144 0.624604 8.82595L6.87065 5.89362C7.18295 5.79588 7.49525 5.79588 7.80756 5.89362L14.0536 8.82595C14.47 9.02144 14.6782 9.41242 14.5741 9.8034C14.5741 10.1944 14.2618 10.5854 13.8454 10.6831L7.59936 12.638C7.49525 12.638 7.39115 12.638 7.28705 12.638ZM3.74763 9.51016L7.28705 10.5854L10.8265 9.51016L7.28705 7.84851L3.74763 9.51016Z" fill="white"/>
</svg>
