<svg width="13" height="13" viewBox="0 0 13 13" fill="none" xmlns="http://www.w3.org/2000/svg"><g clip-path="url(#clip0_2_5177)"><path d="M2.81823 10.1777C0.797284 8.14983 0.797284 4.84631 2.81823 2.81843L3.89629 3.8965V0.648438H0.648227L1.90308 1.90329C-0.634361 4.43727 -0.634361 8.55887 1.90308 11.0963C3.50458 12.6943 5.73351 13.2871 7.79952 12.8642V11.5262C6.07669 11.9733 4.16668 11.5262 2.81823 10.1777Z" fill="white"></path><path d="M11.0996 1.90692C9.49806 0.301956 7.26913 -0.290807 5.20312 0.1321V1.47015C6.92595 1.02298 8.83943 1.47708 10.1844 2.82207C12.2123 4.84994 12.2123 8.15347 10.1844 10.1813L9.10635 9.10327V12.3548H12.3579L11.103 11.1C13.637 8.56251 13.637 4.4409 11.0996 1.90692Z" fill="white"></path></g><defs><clipPath id="clip0_2_5177"><rect width="13" height="13" fill="white"></rect></clipPath></defs></svg>