<svg width="16" height="21" viewBox="0 0 16 21" fill="none" xmlns="http://www.w3.org/2000/svg">
<path d="M14.656 10.9925C14.1914 10.3917 13.4902 9.97899 12.5526 9.75469C13.7466 9.14564 14.2713 8.11195 14.1272 6.65344C14.0791 6.12456 13.9329 5.66618 13.6884 5.27766C13.4437 4.88904 13.1136 4.57663 12.6966 4.34029C12.28 4.10365 11.8269 3.92351 11.3383 3.79932C10.8496 3.67513 10.2886 3.58495 9.65556 3.52892V0.5H7.80473V3.44476C7.48423 3.44476 6.99547 3.45276 6.33847 3.4688V0.5H4.48739V3.52892C4.22288 3.53696 3.83431 3.54104 3.32151 3.54104L0.773438 3.52892V5.50015H2.10751C2.71651 5.50015 3.07308 5.77265 3.17723 6.31745V9.76711C3.25747 9.76711 3.32151 9.77123 3.36963 9.77923H3.17723V14.6109C3.1132 15.0194 2.88086 15.2239 2.48016 15.2239H1.14618L0.773522 17.4235H3.17745C3.32972 17.4235 3.54993 17.4255 3.83852 17.4292C4.12694 17.4332 4.3432 17.4352 4.48747 17.4352V20.5001H6.33885V17.4713C6.6753 17.4795 7.16407 17.4834 7.80511 17.4834V20.5001H9.65598V17.4352C10.3132 17.4032 10.8961 17.3434 11.4047 17.255C11.9135 17.1665 12.4004 17.0285 12.8651 16.8401C13.3297 16.6519 13.7183 16.4174 14.0307 16.1369C14.3433 15.8567 14.6015 15.5 14.8062 15.0672C15.0102 14.6344 15.1406 14.1336 15.1965 13.5646C15.3011 12.4511 15.1207 11.5936 14.656 10.9925ZM6.37447 5.632C6.43058 5.632 6.58883 5.62998 6.84926 5.62594C7.10981 5.62181 7.32607 5.61786 7.49833 5.61381C7.67065 5.60986 7.90303 5.61988 8.19562 5.64391C8.48808 5.66795 8.73444 5.70007 8.9347 5.74007C9.13497 5.78006 9.35552 5.8462 9.5957 5.93835C9.83629 6.03042 10.0285 6.14266 10.1725 6.27485C10.3169 6.40704 10.4391 6.57539 10.539 6.77974C10.6393 6.98404 10.6894 7.21841 10.6894 7.48279C10.6894 7.70717 10.6534 7.91156 10.5814 8.09595C10.5095 8.28022 10.401 8.43451 10.257 8.5587C10.1129 8.68294 9.96435 8.79121 9.81208 8.88328C9.65998 8.97535 9.46548 9.04953 9.22918 9.10557C8.99292 9.16168 8.7866 9.20576 8.61042 9.23776C8.43411 9.26983 8.2138 9.29194 7.94934 9.30389C7.68483 9.31585 7.48444 9.32402 7.3483 9.32797C7.21202 9.33193 7.02578 9.33193 6.78931 9.32797C6.5528 9.32402 6.41476 9.32191 6.37459 9.32191V5.63196H6.37447V5.632ZM11.4288 13.8171C11.3525 14.0015 11.2545 14.1619 11.1344 14.2982C11.0141 14.4342 10.8558 14.5545 10.6595 14.6585C10.4634 14.7628 10.2729 14.8468 10.0887 14.9109C9.90432 14.9753 9.68187 15.0311 9.4217 15.0793C9.16094 15.1274 8.93272 15.1613 8.73621 15.1815C8.53998 15.2015 8.30571 15.2175 8.03316 15.2296C7.76082 15.2414 7.54835 15.2475 7.39616 15.2475C7.24389 15.2475 7.05154 15.2453 6.81916 15.2414C6.58664 15.2377 6.43854 15.2356 6.37438 15.2356V11.1729C6.43841 11.1729 6.62874 11.169 6.94533 11.1608C7.26195 11.1527 7.52023 11.149 7.72057 11.149C7.92088 11.149 8.19743 11.1608 8.55013 11.185C8.9025 11.2089 9.199 11.2448 9.43959 11.2929C9.67989 11.341 9.94213 11.4151 10.2268 11.5153C10.5112 11.6154 10.7417 11.7376 10.918 11.8818C11.0943 12.0263 11.2425 12.2103 11.3626 12.4348C11.4831 12.6591 11.5431 12.9155 11.5431 13.2041C11.5431 13.4287 11.5051 13.6327 11.4288 13.8171Z" fill="white"/>
</svg>
