<svg width="20" height="21" viewBox="0 0 20 21" fill="none" xmlns="http://www.w3.org/2000/svg">
<path d="M9.9605 9.89792C9.1656 9.89861 8.37874 9.72373 7.64707 9.38377C6.91541 9.04382 6.25398 8.54577 5.70242 7.91946L0.190425 1.74791C0.0983383 1.6444 0.0361631 1.51349 0.0116669 1.37155C-0.0128294 1.2296 0.00143826 1.0829 0.0526871 0.949777C0.103936 0.81665 0.189895 0.702994 0.299829 0.623002C0.409763 0.54301 0.538799 0.500229 0.670823 0.5H2.42529C2.51481 0.500036 2.60342 0.519645 2.68592 0.557676C2.76842 0.595707 2.84314 0.651394 2.90569 0.721463L7.52491 5.90241C7.84054 6.26048 8.21889 6.54528 8.63736 6.73981C9.05583 6.93433 9.50583 7.03459 9.9605 7.03459C10.4152 7.03459 10.8652 6.93433 11.2836 6.73981C11.7021 6.54528 12.0805 6.26048 12.3961 5.90241L17.0288 0.721463C17.0912 0.651504 17.1658 0.595881 17.2481 0.557854C17.3305 0.519826 17.4189 0.500158 17.5083 0.5H19.2628C19.3947 0.500588 19.5235 0.54363 19.6331 0.623761C19.7428 0.703891 19.8285 0.817566 19.8796 0.95062C19.9306 1.08367 19.9447 1.23022 19.9202 1.372C19.8956 1.51377 19.8335 1.64451 19.7415 1.74791L14.2177 7.91946C13.6663 8.54565 13.005 9.04364 12.2735 9.38359C11.542 9.72355 10.7553 9.89849 9.9605 9.89792ZM0.670823 0.989791C0.626983 0.989628 0.584068 1.00358 0.547424 1.02991C0.51078 1.05625 0.482026 1.09379 0.464745 1.13788C0.447465 1.18196 0.442421 1.23064 0.450242 1.27783C0.458064 1.32503 0.478405 1.36867 0.508731 1.40331L6.02072 7.57578C6.53092 8.15504 7.14262 8.61579 7.81926 8.9305C8.4959 9.24521 9.22359 9.40741 9.95882 9.40741C10.6941 9.40741 11.4217 9.24521 12.0984 8.9305C12.775 8.61579 13.3867 8.15504 13.8969 7.57578L19.4224 1.40331C19.453 1.3688 19.4737 1.32521 19.4818 1.27795C19.49 1.23069 19.4853 1.18184 19.4683 1.13749C19.4513 1.09313 19.4227 1.05522 19.3862 1.02847C19.3497 1.00172 19.3067 0.987314 19.2628 0.987035H17.5092C17.4793 0.987135 17.4498 0.993681 17.4222 1.0063C17.3947 1.01891 17.3697 1.03735 17.3487 1.06055L12.7169 6.24149C12.3596 6.64658 11.9314 6.96877 11.4578 7.18883C10.9843 7.40888 10.475 7.52229 9.9605 7.52229C9.44598 7.52229 8.93674 7.40888 8.46316 7.18883C7.98958 6.96877 7.56137 6.64658 7.20409 6.24149L2.58486 1.06055C2.56392 1.03727 2.53895 1.01878 2.51141 1.00615C2.48387 0.993534 2.45431 0.987034 2.42445 0.987035L0.670823 0.989791Z" fill="white"/>
<path d="M19.33 20.5017H17.5738C17.4843 20.5016 17.3957 20.482 17.3132 20.444C17.2307 20.406 17.156 20.3503 17.0934 20.2802L12.4356 15.0524C12.1197 14.6948 11.7413 14.4104 11.3229 14.2162C10.9044 14.0219 10.4545 13.9218 10 13.9218C9.54547 13.9218 9.09558 14.0219 8.67715 14.2162C8.25871 14.4104 7.88028 14.6948 7.56441 15.0524L2.90739 20.2793C2.84484 20.3494 2.77012 20.4051 2.68762 20.4431C2.60513 20.4811 2.51651 20.5007 2.42699 20.5008H0.670009C0.538155 20.5004 0.409322 20.4575 0.299563 20.3776C0.189804 20.2976 0.103971 20.1841 0.0527561 20.0512C0.00154071 19.9182 -0.0127928 19.7717 0.0115423 19.6299C0.0358775 19.4882 0.0978052 19.3573 0.18961 19.2538L5.74192 13.0262C6.29374 12.4002 6.9552 11.9023 7.68679 11.5622C8.41839 11.2221 9.20512 11.0469 10 11.0469C10.7949 11.0469 11.5816 11.2221 12.3132 11.5622C13.0448 11.9023 13.7063 12.4002 14.2581 13.0262L19.8104 19.2538C19.9022 19.3573 19.9641 19.4882 19.9885 19.6299C20.0128 19.7717 19.9985 19.9182 19.9472 20.0512C19.896 20.1841 19.8102 20.2976 19.7004 20.3776C19.5907 20.4575 19.4618 20.5004 19.33 20.5008V20.5017ZM10 13.4314C10.5144 13.4309 11.0237 13.544 11.4973 13.7638C11.9709 13.9835 12.3992 14.3056 12.7564 14.7106L17.4134 19.9384C17.4344 19.9617 17.4594 19.9802 17.4869 19.9928C17.5144 20.0054 17.544 20.0119 17.5738 20.0119H19.33C19.3737 20.0117 19.4164 19.9975 19.4528 19.971C19.4892 19.9445 19.5176 19.907 19.5347 19.863C19.5518 19.819 19.5567 19.7704 19.5488 19.7234C19.5409 19.6764 19.5206 19.6329 19.4904 19.5984L13.9389 13.3698C13.4286 12.7909 12.8168 12.3305 12.1402 12.016C11.4636 11.7015 10.736 11.5394 10.0008 11.5394C9.26571 11.5394 8.53811 11.7015 7.86149 12.016C7.18488 12.3305 6.57312 12.7909 6.06274 13.3698L0.509596 19.5984C0.478855 19.6328 0.458069 19.6763 0.449844 19.7236C0.441618 19.7708 0.446319 19.8197 0.463355 19.864C0.480391 19.9084 0.509006 19.9462 0.545617 19.9729C0.582228 19.9995 0.625205 20.0137 0.669169 20.0137H2.42531C2.45517 20.0137 2.48473 20.0072 2.51227 19.9946C2.53981 19.982 2.56478 19.9635 2.58573 19.9402L7.24274 14.7133C7.59981 14.3076 8.02807 13.9849 8.50186 13.7646C8.97565 13.5444 9.48521 13.431 10 13.4314Z" fill="white"/>
<path d="M17.5226 0.757816H19.2746C19.3618 0.758564 19.447 0.787249 19.5195 0.84033C19.592 0.893411 19.6488 0.968564 19.6827 1.05652C19.7166 1.14447 19.7263 1.24137 19.7105 1.33526C19.6947 1.42914 19.6541 1.51591 19.5937 1.58486L14.0759 7.74997C13.5453 8.35187 12.9094 8.83061 12.206 9.15759C11.5026 9.48457 10.7462 9.6531 9.98197 9.6531C9.21773 9.6531 8.46133 9.48457 7.75794 9.15759C7.05455 8.83061 6.4186 8.35187 5.88808 7.74997L0.381968 1.58486C0.321609 1.51591 0.281019 1.42914 0.265209 1.33526C0.249399 1.24137 0.259059 1.14447 0.292999 1.05652C0.326938 0.968564 0.383671 0.893411 0.456195 0.84033C0.52872 0.787249 0.613862 0.758564 0.701114 0.757816H2.45474C2.51432 0.757886 2.5733 0.770921 2.62823 0.796163C2.68316 0.821404 2.73296 0.858349 2.77472 0.904846L7.38807 6.08027C7.72415 6.46158 8.12702 6.76487 8.57262 6.97202C9.01822 7.17917 9.4974 7.28593 9.98155 7.28593C10.4657 7.28593 10.9449 7.17917 11.3905 6.97202C11.8361 6.76487 12.239 6.46158 12.575 6.08027L17.2027 0.904846C17.2442 0.858099 17.294 0.820989 17.349 0.795729C17.404 0.77047 17.463 0.757576 17.5226 0.757816Z" fill="white"/>
<path d="M2.45112 20.2491H0.694136C0.606813 20.2486 0.521556 20.22 0.448905 20.167C0.376254 20.114 0.319394 20.0388 0.285351 19.9509C0.251308 19.8629 0.241576 19.7659 0.257357 19.6719C0.273139 19.5779 0.313744 19.4911 0.37415 19.4221L5.91722 13.2C6.44774 12.5981 7.08368 12.1194 7.78707 11.7924C8.49046 11.4654 9.24687 11.2969 10.0111 11.2969C10.7754 11.2969 11.5318 11.4654 12.2351 11.7924C12.9385 12.1194 13.5745 12.5981 14.105 13.2L19.6481 19.4221C19.7085 19.4911 19.7491 19.5779 19.7649 19.6719C19.7806 19.7659 19.7709 19.8629 19.7369 19.9509C19.7028 20.0388 19.646 20.114 19.5733 20.167C19.5007 20.22 19.4154 20.2486 19.3281 20.2491H17.582C17.5224 20.2491 17.4635 20.236 17.4085 20.2108C17.3536 20.1855 17.3038 20.1486 17.262 20.1021L12.6101 14.8807C12.2739 14.4996 11.8709 14.1966 11.4254 13.9896C10.9798 13.7826 10.5007 13.6759 10.0166 13.6759C9.53249 13.6759 9.05336 13.7826 8.60778 13.9896C8.1622 14.1966 7.75929 14.4996 7.42308 14.8807L2.77111 20.1021C2.72934 20.1486 2.67955 20.1855 2.62461 20.2108C2.56968 20.236 2.5107 20.2491 2.45112 20.2491Z" fill="white"/>
</svg>
