<svg width="24" height="26" viewBox="0 0 24 26" fill="none" xmlns="http://www.w3.org/2000/svg">
<path d="M16.3155 2.42578H6.68451C3.55002 2.42578 1 4.95809 1 8.07081V17.6351C1 20.7476 3.55002 23.2799 6.68451 23.2799H16.3157C19.45 23.2799 22 20.7476 22 17.6351V8.07081C22 4.95809 19.45 2.42578 16.3155 2.42578V2.42578ZM20.7689 17.6351C20.7689 20.0735 18.7711 22.0574 16.3155 22.0574H6.68451C4.22886 22.0574 2.23111 20.0735 2.23111 17.6351V8.07081C2.23111 5.63222 4.22886 3.64834 6.68451 3.64834H16.3157C18.7711 3.64834 20.7689 5.63222 20.7689 8.07081V17.6351Z" fill="#D0D9DE"/>
<path d="M12 7.64062C9.24295 7.64062 7 9.97936 7 12.8542C7 15.729 9.24295 18.0677 12 18.0677C14.7571 18.0677 17 15.729 17 12.8542C17 9.97936 14.7571 7.64062 12 7.64062ZM12 16.9499C9.8342 16.9499 8.07202 15.1126 8.07202 12.8542C8.07202 10.5959 9.8342 8.75843 12 8.75843C14.1659 8.75843 15.928 10.5959 15.928 12.8542C15.928 15.1126 14.1659 16.9499 12 16.9499Z" fill="#D0D9DE"/>
<path d="M17.4999 4.51172C16.6728 4.51172 16 5.44942 16 6.60186C16 7.7545 16.6728 8.6922 17.4999 8.6922C18.3271 8.6922 19 7.7545 19 6.60186C19 5.44922 18.3271 4.51172 17.4999 4.51172ZM17.4999 7.17542C17.273 7.17542 17.0883 6.91805 17.0883 6.60186C17.0883 6.28548 17.273 6.02831 17.4999 6.02831C17.727 6.02831 17.9117 6.28548 17.9117 6.60186C17.9117 6.91805 17.727 7.17542 17.4999 7.17542Z" fill="#D0D9DE"/>
</svg>
