<svg width="50" height="50" viewBox="0 0 50 50" fill="none" xmlns="http://www.w3.org/2000/svg">
<path d="M25.0008 0C11.1884 0 0 11.1884 0 25.0008C0 38.8065 11.1884 50 25.0008 50C38.8133 50 49.9983 38.8065 49.9983 25.0008C49.9983 11.1884 38.8133 0 25.0008 0ZM25.0008 45.9218C13.4451 45.9218 4.07821 36.5566 4.07821 24.9992C4.07821 13.44 13.4451 4.07144 25.0008 4.07144C36.5566 4.07144 45.9252 13.4417 45.9252 25.0008C45.9252 36.5566 36.5566 45.9218 25.0008 45.9218Z" fill="white"/>
<path d="M27.6608 30.4104L28.6765 9.48438H21.375L22.3941 30.4104H27.6608Z" fill="white"/>
<path d="M25.0233 32.7109C22.577 32.7109 20.8672 34.4225 20.8672 36.9178C20.8672 39.3184 22.5296 41.1196 24.9268 41.1196H25.0233C27.5169 41.1196 29.1337 39.3184 29.1337 36.9178C29.0879 34.4225 27.4712 32.7109 25.0233 32.7109Z" fill="white"/>
</svg>
