<svg width="16" height="16" viewBox="0 0 16 16" fill="none" xmlns="http://www.w3.org/2000/svg">
<path d="M15.5312 1.875H13.1091C12.8913 0.8065 11.9444 0 10.8125 0C9.68062 0 8.73369 0.8065 8.51591 1.875H0.46875C0.209875 1.875 0 2.08488 0 2.34375C0 2.60262 0.209875 2.8125 0.46875 2.8125H8.51591C8.73366 3.881 9.68062 4.6875 10.8125 4.6875C11.9444 4.6875 12.8913 3.881 13.1091 2.8125H15.5312C15.7901 2.8125 16 2.60262 16 2.34375C16 2.08488 15.7901 1.875 15.5312 1.875ZM10.8125 3.75C10.0372 3.75 9.40647 3.11937 9.40625 2.34416C9.40625 2.34403 9.40628 2.34391 9.40628 2.34375C9.40628 2.34359 9.40625 2.34347 9.40625 2.34334C9.40647 1.56813 10.0372 0.9375 10.8125 0.9375C11.5879 0.9375 12.2188 1.56834 12.2188 2.34375C12.2188 3.11916 11.5879 3.75 10.8125 3.75Z" fill="#D0D9DE"/>
<path d="M15.5312 7.53125H7.48409C7.26634 6.46275 6.31938 5.65625 5.1875 5.65625C4.05562 5.65625 3.10869 6.46275 2.89091 7.53125H0.46875C0.209875 7.53125 0 7.74113 0 8C0 8.25887 0.209875 8.46875 0.46875 8.46875H2.89091C3.10866 9.53725 4.05562 10.3438 5.1875 10.3438C6.31938 10.3438 7.26631 9.53725 7.48409 8.46875H15.5312C15.7901 8.46875 16 8.25887 16 8C16 7.74113 15.7901 7.53125 15.5312 7.53125ZM5.1875 9.40625C4.41222 9.40625 3.78147 8.77562 3.78125 8.00041C3.78125 8.00028 3.78128 8.00016 3.78128 8C3.78128 7.99984 3.78125 7.99972 3.78125 7.99959C3.78147 7.22438 4.41222 6.59375 5.1875 6.59375C5.96291 6.59375 6.59375 7.22459 6.59375 8C6.59375 8.77541 5.96291 9.40625 5.1875 9.40625Z" fill="#D0D9DE"/>
<path d="M15.5312 13.1875H13.1091C12.8913 12.119 11.9444 11.3125 10.8125 11.3125C9.68062 11.3125 8.73369 12.119 8.51591 13.1875H0.46875C0.209875 13.1875 0 13.3974 0 13.6562C0 13.9151 0.209875 14.125 0.46875 14.125H8.51591C8.73366 15.1935 9.68062 16 10.8125 16C11.9444 16 12.8913 15.1935 13.1091 14.125H15.5312C15.7901 14.125 16 13.9151 16 13.6562C16 13.3974 15.7901 13.1875 15.5312 13.1875ZM10.8125 15.0625C10.0372 15.0625 9.40647 14.4319 9.40625 13.6567C9.40625 13.6565 9.40628 13.6564 9.40628 13.6562C9.40628 13.6561 9.40625 13.656 9.40625 13.6558C9.40647 12.8806 10.0372 12.25 10.8125 12.25C11.5879 12.25 12.2188 12.8808 12.2188 13.6562C12.2188 14.4317 11.5879 15.0625 10.8125 15.0625Z" fill="#D0D9DE"/>
</svg>
