<svg width="16" height="16" viewBox="0 0 16 16" fill="none" xmlns="http://www.w3.org/2000/svg">
<g clip-path="url(#clip0_284_29442)">
<path fill-rule="evenodd" clip-rule="evenodd" d="M9.19476 1.62104C8.65348 0.792989 7.42493 0.792981 6.88365 1.62104L4.15077 5.80161L2.06188 4.61811C1.01537 4.02518 -0.242904 4.95439 0.040574 6.11079L1.45972 11.8999C1.52361 12.1606 1.7603 12.3442 2.03238 12.3442H14.046C14.3182 12.3442 14.5548 12.1606 14.6187 11.8999L16.0378 6.11079C16.3214 4.95438 15.0631 4.02518 14.0165 4.61811L11.9276 5.80161L9.19476 1.62104ZM8.20425 2.24996C8.127 2.13166 7.95142 2.13166 7.87416 2.24995L4.83795 6.89451C4.668 7.15449 4.32111 7.23754 4.04908 7.08343L1.47465 5.62484C1.32514 5.54014 1.14539 5.67288 1.18589 5.83808L2.49613 11.1829H13.5823L14.8926 5.83808C14.933 5.67288 14.7533 5.54014 14.6038 5.62484L12.0293 7.08343C11.7573 7.23754 11.4104 7.15449 11.2405 6.89451L8.20425 2.24996Z" fill="#D0D9DE"/>
<path d="M2.54226 13.5078C2.21689 13.5078 1.95312 13.7678 1.95312 14.0885C1.95312 14.4091 2.21689 14.6691 2.54226 14.6691H13.5394C13.8647 14.6691 14.1285 14.4091 14.1285 14.0885C14.1285 13.7678 13.8647 13.5078 13.5394 13.5078H2.54226Z" fill="#D0D9DE"/>
</g>
<defs>
<clipPath id="clip0_284_29442">
<rect width="16" height="16" fill="white"/>
</clipPath>
</defs>
</svg>
