<svg t="1658823428307" class="icon" viewBox="0 0 1024 1024" version="1.1" xmlns="http://www.w3.org/2000/svg" p-id="15851" xmlns:xlink="http://www.w3.org/1999/xlink" width="200" height="200">
    <defs>
        <style type="text/css"></style>
    </defs>
    <path d="M595.2 1024H433.476923c-14.276923 0-26.830769-10.614154-29.538461-24.674462l-19.446154-100.430769c-18.461538-6.163692-35.446154-12.829538-51.446154-20.726154l-85.661539 58.24a30.178462 30.178462 0 0 1-38.153846-3.702153L95.015385 817.969231a30.296615 30.296615 0 0 1-3.692308-38.252308l57.846154-85.366154A377.078154 377.078154 0 0 1 128 642.284308l-100.676923-19.495385c-14.030769-2.717538-25.107692-15.054769-25.107692-29.607385V431.064615c0-14.306462 11.076923-26.889846 25.353846-29.607384l99.692307-19.249231a420.765538 420.765538 0 0 1 20.923077-52.302769l-57.107692-84.391385c-8.123077-11.844923-6.4-27.884308 3.692308-38.242461L209.230769 92.780308a30.464 30.464 0 0 1 38.153846-3.702154l83.938462 57.245538c16.738462-8.388923 34.461538-15.556923 53.169231-21.720615L403.692308 24.674462C406.4 10.614154 418.707692 0 433.230769 0h161.723077c14.276923 0 26.830769 10.614154 29.538462 24.674462l19.2 99.682461a401.211077 401.211077 0 0 1 52.923077 21.228308l84.430769-57.245539a30.178462 30.178462 0 0 1 38.153846 3.692308L933.415385 206.769231a30.296615 30.296615 0 0 1 3.692307 38.252307l-57.6 84.873847a417.693538 417.693538 0 0 1 20.923077 51.574153l99.692308 19.495385C1014.153846 403.682462 1024 416.019692 1024 430.572308v161.624615c0 14.306462-9.846154 26.889846-24.123077 29.607385l-99.446154 19.495384a428.465231 428.465231 0 0 1-20.676923 52.30277l58.092308 85.868307a30.050462 30.050462 0 0 1-3.692308 38.252308L819.692308 932.214154c-10.092308 10.358154-26.092308 11.835077-38.153846 3.692308l-85.661539-58.230154a401.831385 401.831385 0 0 1-51.938461 21.218461l-19.446154 100.676923C621.784615 1013.385846 609.476923 1024 595.2 1024z m-137.107692-61.686154h112.246154l17.96923-93.272615a29.636923 29.636923 0 0 1 21.169231-22.941539c26.584615-7.650462 51.446154-17.772308 73.6-30.109538 9.846154-5.425231 22.153846-4.932923 31.507692 1.476923l80 54.537846 79.261539-79.458461-54.153846-80.187077a29.833846 29.833846 0 0 1-1.23077-31.586462c11.815385-21.464615 21.661538-45.646769 29.538462-74.023385 2.953846-10.860308 11.076923-19.249231 22.153846-21.218461l92.307692-18.018462V455.010462l-92.307692-18.25477c-11.076923-2.225231-19.446154-10.368-22.646154-21.228307-7.630769-26.889846-17.476923-51.564308-29.538461-73.531077a30.395077 30.395077 0 0 1 1.476923-31.576616l53.661538-79.212307-79.261538-79.448616-78.769231 53.543385c-9.353846 6.419692-21.661538 6.912-31.507692 1.230769-21.169231-11.835077-45.538462-21.710769-74.338462-29.853538-10.830769-2.953846-19.2-11.598769-21.169231-22.695385l-17.723076-92.288H457.846154l-17.969231 92.534154a29.636923 29.636923 0 0 1-21.169231 22.941538c-27.323077 7.650462-52.430769 18.018462-74.830769 30.601846-9.846154 5.425231-22.153846 4.923077-31.507692-1.476923l-78.276923-53.307077-79.261539 79.458462 53.415385 78.956308c6.4 9.373538 6.892308 21.464615 1.476923 31.340307-11.815385 21.218462-21.415385 45.390769-29.292308 73.777231-2.953846 11.096615-12.307692 19.239385-23.384615 21.464616l-93.046154 18.018461v112.512l93.292308 18.018462c11.076923 2.215385 20.184615 10.358154 23.138461 21.208615 7.630769 26.899692 17.723077 51.574154 30.276923 73.777231 5.415385 9.875692 4.923077 22.212923-1.230769 31.586461l-54.153846 79.95077 79.261538 79.448615L314.584615 818.215385c9.353846-6.419692 21.415385-6.912 31.507693-1.476923 21.169231 11.835077 45.046154 21.464615 73.107692 29.36123 10.830769 3.2 19.2 11.588923 21.169231 22.695385l17.723077 93.518769zM994.461538 602.062769h0.492308-0.492308z m-480.246153 146.313846c-62.523077 0-121.846154-24.418462-166.892308-69.326769-53.661538-53.789538-77.784615-128.315077-66.215385-204.553846 15.261538-100.430769 96-181.110154 196.184616-196.657231 75.569231-11.598769 150.153846 12.583385 203.815384 66.372923 53.661538 53.789538 78.030769 128.305231 66.461539 204.553846-15.261538 100.430769-96 181.110154-195.938462 196.657231-12.553846 1.969231-25.107692 2.953846-37.415384 2.953846z m32.738461-25.403077h0.492308-0.492308z m-32.492308-387.643076c-9.353846 0-18.461538 0.738462-28.061538 2.215384-73.353846 11.352615-134.646154 72.792615-145.969231 146.077539-8.615385 56.999385 9.353846 112.768 49.476923 152.979692 40.123077 40.221538 95.753846 58.24 152.615385 49.604923 73.353846-11.352615 134.646154-72.792615 145.723077-146.323692 8.615385-57.009231-9.353846-112.768-49.476923-152.989539-33.476923-33.555692-77.538462-51.564308-124.307693-51.564307z" fill="#2E323F" p-id="15852"></path>
</svg>