<svg width="16" height="16" viewBox="0 0 16 16" fill="none" xmlns="http://www.w3.org/2000/svg">
<path fill-rule="evenodd" clip-rule="evenodd" d="M12.6641 2.66927C12.8409 2.66927 13.0104 2.73951 13.1355 2.86453C13.2605 2.98956 13.3307 3.15913 13.3307 3.33594V12.6693C13.3307 12.8461 13.2605 13.0157 13.1355 13.1407C13.0104 13.2657 12.8409 13.3359 12.6641 13.3359H9.9974C9.62921 13.3359 9.33073 13.6344 9.33073 14.0026C9.33073 14.3708 9.62921 14.6693 9.9974 14.6693H12.6641C13.1945 14.6693 13.7032 14.4586 14.0783 14.0835C14.4533 13.7084 14.6641 13.1997 14.6641 12.6693V3.33594C14.6641 2.8055 14.4533 2.2968 14.0783 1.92172C13.7032 1.54665 13.1945 1.33594 12.6641 1.33594H9.9974C9.62921 1.33594 9.33073 1.63441 9.33073 2.0026C9.33073 2.37079 9.62921 2.66927 9.9974 2.66927H12.6641Z" fill="#D0D9DE"/>
<path fill-rule="evenodd" clip-rule="evenodd" d="M5.80474 4.19526C5.54439 3.93491 5.12228 3.93491 4.86193 4.19526L1.5286 7.5286C1.26825 7.78894 1.26825 8.21106 1.5286 8.4714L4.86193 11.8047C5.12228 12.0651 5.54439 12.0651 5.80474 11.8047C6.06509 11.5444 6.06509 11.1223 5.80474 10.8619L2.94281 8L5.80474 5.13807C6.06509 4.87772 6.06509 4.45561 5.80474 4.19526Z" fill="#D0D9DE"/>
<path fill-rule="evenodd" clip-rule="evenodd" d="M10.6641 8.0026C10.6641 7.63441 10.3656 7.33594 9.9974 7.33594H1.9974C1.62921 7.33594 1.33073 7.63441 1.33073 8.0026C1.33073 8.37079 1.62921 8.66927 1.9974 8.66927H9.9974C10.3656 8.66927 10.6641 8.37079 10.6641 8.0026Z" fill="#D0D9DE"/>
</svg>
