<svg width="450" height="450" viewBox="0 0 450 450" fill="none" xmlns="http://www.w3.org/2000/svg">
<path d="M174.994 238.226C175.801 272.489 172.164 288.932 155.081 311.013C134.797 285.719 130.976 269.636 135.169 238.226H155.081H174.994Z" fill="#4056D8"/>
<path d="M172.409 231.874H136.863C136.149 231.874 135.466 231.521 135.047 230.943C84.4155 161.032 123.439 79.1116 150.865 44.0263C151.788 42.845 153.551 42.9146 154.381 44.1626C179.251 81.5403 215.928 165.99 174.29 230.846C173.881 231.485 173.167 231.874 172.409 231.874Z" fill="#2D2B38"/>
<path d="M139.982 231.874H168.759V238.359H139.982V231.874Z" fill="#24222D"/>
<path d="M87.2674 134.542L121.072 114.969L116.248 156.115L90.54 161.081C89.2201 161.336 87.9727 160.384 87.8699 159.044L86.1514 136.661C86.0852 135.799 86.519 134.975 87.2674 134.542Z" fill="#2D2B38"/>
<path d="M215.753 134.542L181.948 114.969L186.772 156.115L212.48 161.081C213.8 161.336 215.047 160.384 215.15 159.044L216.869 136.661C216.935 135.799 216.501 134.975 215.753 134.542Z" fill="#2D2B38"/>
<path d="M163.961 165.501C157.259 171.421 147.028 170.787 141.108 164.086C135.188 157.384 135.821 147.152 142.523 141.232C149.225 135.312 159.456 135.946 165.376 142.648C171.296 149.349 170.663 159.581 163.961 165.501Z" fill="white"/>
<path d="M292.729 157.012C283.905 158.607 267.014 158.932 265.133 152.662C262.957 145.397 273.699 136.537 279.137 140.866C277.441 138.91 274.788 135.304 277.373 134.424C282.564 132.655 294.241 139.461 294.466 143.258L292.729 157.012Z" fill="#FF9494"/>
<path d="M294.986 134.596L290.219 163.767L360.491 169.899C375.417 171.201 388.033 158.972 387.196 144.011L384.84 101.971C384.253 91.5131 373.19 85.0412 363.787 89.6562C359.111 91.9503 356.009 96.5556 355.64 101.749L352.715 142.747L294.986 134.596Z" fill="#4056D8"/>
<path d="M377.48 56.0356L386.888 63.0234C386.888 64.2501 385.495 68.7114 384.8 70.7886C383.681 73.6513 381.31 76.824 378.412 78.964L379.517 93.9789H363.548V78.964C352.616 77.15 357.397 51.8944 363.056 48.1597L377.48 56.0356Z" fill="#FF9494"/>
<path fill-rule="evenodd" clip-rule="evenodd" d="M363.53 80.0467H363.528V78.9217C364.082 78.9217 365.123 78.9217 366.219 78.8611C367.331 78.7997 368.44 78.6787 369.153 78.4559L369.488 79.5296C368.631 79.7983 367.396 79.9229 366.282 79.9843C365.153 80.0467 364.086 80.0467 363.53 80.0467Z" fill="#2D2B38"/>
<path d="M351.063 46.6094C345.6 53.9334 361.586 65.5117 367.774 60.2098C375.872 53.2748 376.601 63.7605 376.601 63.7605C379.17 60.6784 383.611 64.2701 382.297 68.429C381.121 72.1534 385.394 77.6128 387.844 65.7115C394.164 65.7115 400.703 50.7706 387.396 45.9256C381.69 33.1 366.682 37.2474 366.682 41.8324C360.434 37.1934 356.125 43.1365 357.853 46.6094C356.949 44.7903 352.676 44.4454 351.063 46.6094Z" fill="#2D2B38"/>
<path d="M354.537 421.715V390.884H327.512V396.657L298.89 406.73V421.715H321.37H330.953H338.076H354.537Z" fill="#4056D8"/>
<path d="M395.811 427.365V396.533H368.786V402.307L340.166 412.38V427.365H362.646H372.227H379.35H395.811Z" fill="#4056D8"/>
<path d="M317.07 395.919H382.176L355.151 284.38L382.176 189.18H314.861L299.873 284.38L317.07 395.919Z" fill="#2D2B38"/>
<path fill-rule="evenodd" clip-rule="evenodd" d="M366.883 368.417L371.304 390.773C371.338 390.94 371.295 391.111 371.187 391.241C371.081 391.37 370.921 391.446 370.753 391.446H338.2V390.321H370.069L365.778 368.636L366.883 368.417Z" fill="#2D2B38"/>
<path d="M339.797 398.252H404.901L382.176 290.891C397.834 251.323 403.051 228.884 404.901 188.32H344.957L326.898 290.891L339.797 398.252Z" fill="#2D2B38"/>
<path fill-rule="evenodd" clip-rule="evenodd" d="M394.522 369.646L398.943 392.002C398.977 392.168 398.934 392.339 398.826 392.47C398.72 392.598 398.561 392.675 398.392 392.675H365.839V391.55H397.708L393.417 369.864L394.522 369.646Z" fill="#FAFAFF"/>
<path fill-rule="evenodd" clip-rule="evenodd" d="M327.467 290.907L336.481 239.704L335.374 239.508L326.331 290.875L332.789 344.639L333.907 344.504L327.467 290.907Z" fill="#FAFAFF"/>
<path d="M314.86 189.18L405.394 189.057L399.852 110.817C398.547 92.4052 379.953 80.3848 362.628 86.755C354.276 89.8261 347.913 96.7183 345.4 105.255C342.34 115.648 337.993 129.956 334.219 140.658C327.436 159.899 314.86 189.18 314.86 189.18Z" fill="#4056D8"/>
<path d="M321.574 194.128C314.082 199.612 298.505 207.571 293.913 202.586C288.594 196.811 294.577 183.695 301.603 185.259C299.137 184.206 295.033 182.053 297.04 180.061C301.07 176.063 315.025 177.105 316.957 180.538L321.574 194.128Z" fill="#FF9494"/>
<path d="M312.557 170.259L321.341 199.575L385.2 179.022C399.767 174.333 407.088 158.079 400.948 144.062L382.779 102.599C378.466 92.7522 365.193 91.0949 358.589 99.5787C355.624 103.388 354.798 108.442 356.4 112.996L369.99 151.681L312.557 170.259Z" fill="#4056D8"/>
<path fill-rule="evenodd" clip-rule="evenodd" d="M401.695 164.985L388.359 172.531L387.916 171.748L401.252 164.202L401.695 164.985Z" fill="white"/>
<path fill-rule="evenodd" clip-rule="evenodd" d="M365.22 137.455L370.004 152.01C370.042 152.126 370.031 152.253 369.974 152.361C369.918 152.468 369.819 152.549 369.702 152.583L353.385 157.343L353.133 156.479L369.002 151.849L364.365 137.736L365.22 137.455Z" fill="white"/>
<path d="M245.7 90.225V139.95H236.7V90.225H245.7Z" fill="#4056D8"/>
<path d="M236.7 135.45H292.95V144.45H236.7V135.45Z" fill="#2D2B38"/>
<path fill-rule="evenodd" clip-rule="evenodd" d="M286.875 143.1H252V141.975H286.875V143.1Z" fill="white"/>
</svg>
